<?xml version="1.0" encoding="UTF-8" standalone="no"?>
<!DOCTYPE svg PUBLIC "-//W3C//DTD SVG 1.1//EN" "http://www.w3.org/Graphics/SVG/1.1/DTD/svg11.dtd">
<!-- Generated by graphviz version 2.40.1 (20161225.0304)
 -->
<!-- Title: %0 Pages: 1 -->
<svg width="531pt" height="1197pt" viewBox="0.00 0.00 531.01 1197.05" xmlns="http://www.w3.org/2000/svg" xmlns:xlink="http://www.w3.org/1999/xlink">
<g id="graph0" class="graph" transform="scale(1 1) rotate(0) translate(4 1193.0536)">
<title>%0</title>
<polygon fill="#ffffff" stroke="transparent" points="-4,4 -4,-1193.0536 527.0126,-1193.0536 527.0126,4 -4,4"/>
<!-- 0 -->
<g id="node1" class="node">
<title>0</title>
<ellipse fill="none" stroke="#000000" cx="157.8777" cy="-941.0921" rx="82.6992" ry="65.1077"/>
<text text-anchor="start" x="107.2943" y="-970.4921" font-family="Times,serif" font-size="14.00" fill="#000000">struct Alice&lt;F&gt; {</text>
<text text-anchor="start" x="107.2943" y="-953.6921" font-family="Times,serif" font-size="14.00" fill="#000000">  x(u8),</text>
<text text-anchor="start" x="107.2943" y="-936.8921" font-family="Times,serif" font-size="14.00" fill="#000000">  y(u32),</text>
<text text-anchor="start" x="107.2943" y="-920.0921" font-family="Times,serif" font-size="14.00" fill="#000000">  bob({Bob&lt;F&gt;}),</text>
<text text-anchor="middle" x="157.8777" y="-903.2921" font-family="Times,serif" font-size="14.00" fill="#000000">}</text>
</g>
<!-- 1 -->
<g id="node2" class="node">
<title>1</title>
<ellipse fill="none" stroke="#000000" cx="127.8777" cy="-675.0287" rx="76.94" ry="65.1077"/>
<text text-anchor="start" x="81.6287" y="-704.4287" font-family="Times,serif" font-size="14.00" fill="#000000">struct Bob&lt;T&gt; {</text>
<text text-anchor="start" x="81.6287" y="-687.6287" font-family="Times,serif" font-size="14.00" fill="#000000">  a(u8),</text>
<text text-anchor="start" x="81.6287" y="-670.8287" font-family="Times,serif" font-size="14.00" fill="#000000">  b(u32),</text>
<text text-anchor="start" x="81.6287" y="-654.0287" font-family="Times,serif" font-size="14.00" fill="#000000">  other(T),</text>
<text text-anchor="middle" x="127.8777" y="-637.2287" font-family="Times,serif" font-size="14.00" fill="#000000">}</text>
</g>
<!-- 0&#45;&gt;1 -->
<g id="edge6" class="edge">
<title>0-&gt;1</title>
<path fill="none" stroke="#000000" d="M150.5389,-876.0057C146.2463,-837.9358 140.8095,-789.7182 136.3373,-750.0549"/>
<polygon fill="#000000" stroke="#000000" points="139.7912,-749.4486 135.1927,-739.9038 132.8353,-750.233 139.7912,-749.4486"/>
<text text-anchor="middle" x="152.3777" y="-845.4383" font-family="Times,serif" font-size="14.00" fill="#000000">5</text>
</g>
<!-- 5 -->
<g id="node6" class="node">
<title>5</title>
<ellipse fill="none" stroke="#000000" cx="240.8777" cy="-325.8096" rx="107.2699" ry="148.4195"/>
<text text-anchor="start" x="173.1219" y="-414.0096" font-family="Times,serif" font-size="14.00" fill="#000000">fn main() -&gt; () {</text>
<text text-anchor="start" x="173.1219" y="-397.2096" font-family="Times,serif" font-size="14.00" fill="#000000">  let foo: UNK = Bob {</text>
<text text-anchor="start" x="173.1219" y="-380.4096" font-family="Times,serif" font-size="14.00" fill="#000000">    a: 2u8,</text>
<text text-anchor="start" x="173.1219" y="-363.6096" font-family="Times,serif" font-size="14.00" fill="#000000">    b: 3u32,</text>
<text text-anchor="start" x="173.1219" y="-346.8096" font-family="Times,serif" font-size="14.00" fill="#000000">    other: 16u16,</text>
<text text-anchor="start" x="173.1219" y="-330.0096" font-family="Times,serif" font-size="14.00" fill="#000000">  };</text>
<text text-anchor="start" x="173.1219" y="-313.2096" font-family="Times,serif" font-size="14.00" fill="#000000">  let bar: UNK = Alice {</text>
<text text-anchor="start" x="173.1219" y="-296.4096" font-family="Times,serif" font-size="14.00" fill="#000000">    x: 4u8,</text>
<text text-anchor="start" x="173.1219" y="-279.6096" font-family="Times,serif" font-size="14.00" fill="#000000">    y: 5u32,</text>
<text text-anchor="start" x="173.1219" y="-262.8096" font-family="Times,serif" font-size="14.00" fill="#000000">    bob: foo,</text>
<text text-anchor="start" x="173.1219" y="-246.0096" font-family="Times,serif" font-size="14.00" fill="#000000">  };</text>
<text text-anchor="middle" x="240.8777" y="-229.2096" font-family="Times,serif" font-size="14.00" fill="#000000">}</text>
</g>
<!-- 0&#45;&gt;5 -->
<g id="edge7" class="edge">
<title>0-&gt;5</title>
<path fill="none" stroke="#000000" d="M191.6449,-881.6202C200.4429,-863.4302 208.8553,-842.9978 213.8777,-823.2383 242.0967,-712.2164 248.343,-582.9206 247.7995,-483.9797"/>
<polygon fill="#000000" stroke="#000000" points="251.2988,-483.8673 247.7201,-473.8952 244.299,-483.9225 251.2988,-483.8673"/>
<text text-anchor="middle" x="250.3777" y="-670.8287" font-family="Times,serif" font-size="14.00" fill="#000000">6</text>
</g>
<!-- 6 -->
<g id="node7" class="node">
<title>6</title>
<ellipse fill="none" stroke="#000000" cx="101.8777" cy="-106.8" rx="43.4773" ry="18"/>
<text text-anchor="middle" x="101.8777" y="-102.6" font-family="Times,serif" font-size="14.00" fill="#000000">main.sw</text>
</g>
<!-- 0&#45;&gt;6 -->
<g id="edge12" class="edge">
<title>0-&gt;6</title>
<path fill="none" stroke="#000000" d="M97.2583,-896.406C75.4888,-876.6817 53.4663,-851.5323 41.8777,-823.2383 -60.8129,-572.5152 53.7822,-231.8803 91.0118,-134.0729"/>
<polygon fill="#000000" stroke="#000000" points="94.3262,-135.2056 94.6607,-124.6161 87.7955,-132.6857 94.3262,-135.2056"/>
<text text-anchor="middle" x="11.8777" y="-496.2192" font-family="Times,serif" font-size="14.00" fill="#000000">11</text>
</g>
<!-- 1&#45;&gt;0 -->
<g id="edge8" class="edge">
<title>1-&gt;0</title>
<path fill="none" stroke="#000000" d="M127.9467,-740.131C128.7703,-775.2257 131.0691,-819.1837 136.8777,-858.0383 137.3357,-861.102 137.8582,-864.2169 138.4317,-867.3545"/>
<polygon fill="#000000" stroke="#000000" points="135.0478,-868.285 140.4199,-877.4169 141.915,-866.9281 135.0478,-868.285"/>
<text text-anchor="middle" x="140.3777" y="-845.4383" font-family="Times,serif" font-size="14.00" fill="#000000">7</text>
</g>
<!-- 1&#45;&gt;5 -->
<g id="edge9" class="edge">
<title>1-&gt;5</title>
<path fill="none" stroke="#000000" d="M148.2103,-612.192C160.9584,-572.7949 177.9444,-520.301 193.8896,-471.0232"/>
<polygon fill="#000000" stroke="#000000" points="197.3146,-471.8072 197.0632,-461.2153 190.6545,-469.6521 197.3146,-471.8072"/>
<text text-anchor="middle" x="187.3777" y="-496.2192" font-family="Times,serif" font-size="14.00" fill="#000000">8</text>
</g>
<!-- 1&#45;&gt;6 -->
<g id="edge13" class="edge">
<title>1-&gt;6</title>
<path fill="none" stroke="#000000" d="M121.3772,-609.9181C117.7001,-570.6051 113.355,-519.4804 110.8777,-474.0192 104.0036,-347.8696 102.3789,-197.0549 101.9957,-135.2931"/>
<polygon fill="#000000" stroke="#000000" points="105.495,-135.1364 101.9392,-125.156 98.4951,-135.1754 105.495,-135.1364"/>
<text text-anchor="middle" x="117.8777" y="-321.6096" font-family="Times,serif" font-size="14.00" fill="#000000">12</text>
</g>
<!-- 2 -->
<g id="node3" class="node">
<title>2</title>
<ellipse fill="none" stroke="#000000" cx="417.8777" cy="-1123.9998" rx="97.6096" ry="65.1077"/>
<text text-anchor="start" x="356.7194" y="-1153.3998" font-family="Times,serif" font-size="14.00" fill="#000000">let foo: UNK = Bob {</text>
<text text-anchor="start" x="356.7194" y="-1136.5998" font-family="Times,serif" font-size="14.00" fill="#000000">  a: 2u8,</text>
<text text-anchor="start" x="356.7194" y="-1119.7998" font-family="Times,serif" font-size="14.00" fill="#000000">  b: 3u32,</text>
<text text-anchor="start" x="356.7194" y="-1102.9998" font-family="Times,serif" font-size="14.00" fill="#000000">  other: 16u16,</text>
<text text-anchor="middle" x="417.8777" y="-1086.1998" font-family="Times,serif" font-size="14.00" fill="#000000">}</text>
</g>
<!-- 3 -->
<g id="node4" class="node">
<title>3</title>
<ellipse fill="none" stroke="#000000" cx="387.8777" cy="-941.0921" rx="102.3706" ry="65.1077"/>
<text text-anchor="start" x="323.6219" y="-970.4921" font-family="Times,serif" font-size="14.00" fill="#000000">let bar: UNK = Alice {</text>
<text text-anchor="start" x="323.6219" y="-953.6921" font-family="Times,serif" font-size="14.00" fill="#000000">  x: 4u8,</text>
<text text-anchor="start" x="323.6219" y="-936.8921" font-family="Times,serif" font-size="14.00" fill="#000000">  y: 5u32,</text>
<text text-anchor="start" x="323.6219" y="-920.0921" font-family="Times,serif" font-size="14.00" fill="#000000">  bob: foo,</text>
<text text-anchor="middle" x="387.8777" y="-903.2921" font-family="Times,serif" font-size="14.00" fill="#000000">}</text>
</g>
<!-- 2&#45;&gt;3 -->
<g id="edge1" class="edge">
<title>2-&gt;3</title>
<path fill="none" stroke="#000000" d="M407.2586,-1059.256C404.9799,-1045.3632 402.5534,-1030.5689 400.216,-1016.3177"/>
<polygon fill="#000000" stroke="#000000" points="403.6056,-1015.3589 398.5331,-1006.0573 396.6979,-1016.492 403.6056,-1015.3589"/>
<text text-anchor="middle" x="406.3777" y="-1028.346" font-family="Times,serif" font-size="14.00" fill="#000000">0</text>
</g>
<!-- 4 -->
<g id="node5" class="node">
<title>4</title>
<ellipse fill="none" stroke="#000000" cx="415.8777" cy="-675.0287" rx="107.2699" ry="148.4195"/>
<text text-anchor="start" x="348.1219" y="-763.2287" font-family="Times,serif" font-size="14.00" fill="#000000">{</text>
<text text-anchor="start" x="348.1219" y="-746.4287" font-family="Times,serif" font-size="14.00" fill="#000000">  let foo: UNK = Bob {</text>
<text text-anchor="start" x="348.1219" y="-729.6287" font-family="Times,serif" font-size="14.00" fill="#000000">    a: 2u8,</text>
<text text-anchor="start" x="348.1219" y="-712.8287" font-family="Times,serif" font-size="14.00" fill="#000000">    b: 3u32,</text>
<text text-anchor="start" x="348.1219" y="-696.0287" font-family="Times,serif" font-size="14.00" fill="#000000">    other: 16u16,</text>
<text text-anchor="start" x="348.1219" y="-679.2287" font-family="Times,serif" font-size="14.00" fill="#000000">  };</text>
<text text-anchor="start" x="348.1219" y="-662.4287" font-family="Times,serif" font-size="14.00" fill="#000000">  let bar: UNK = Alice {</text>
<text text-anchor="start" x="348.1219" y="-645.6287" font-family="Times,serif" font-size="14.00" fill="#000000">    x: 4u8,</text>
<text text-anchor="start" x="348.1219" y="-628.8287" font-family="Times,serif" font-size="14.00" fill="#000000">    y: 5u32,</text>
<text text-anchor="start" x="348.1219" y="-612.0287" font-family="Times,serif" font-size="14.00" fill="#000000">    bob: foo,</text>
<text text-anchor="start" x="348.1219" y="-595.2287" font-family="Times,serif" font-size="14.00" fill="#000000">  };</text>
<text text-anchor="start" x="348.1219" y="-578.4287" font-family="Times,serif" font-size="14.00" fill="#000000">}</text>
</g>
<!-- 2&#45;&gt;4 -->
<g id="edge3" class="edge">
<title>2-&gt;4</title>
<path fill="none" stroke="#000000" d="M466.8866,-1067.4252C479.8723,-1049.0835 492.1411,-1027.8411 498.8777,-1006.146 519.1881,-940.7367 504.246,-866.9039 481.7406,-805.583"/>
<polygon fill="#000000" stroke="#000000" points="484.8736,-803.9719 478.068,-795.852 478.3246,-806.4437 484.8736,-803.9719"/>
<text text-anchor="middle" x="511.3777" y="-936.8921" font-family="Times,serif" font-size="14.00" fill="#000000">2</text>
</g>
<!-- 3&#45;&gt;2 -->
<g id="edge2" class="edge">
<title>3-&gt;2</title>
<path fill="none" stroke="#000000" d="M387.1703,-1006.355C387.8023,-1017.9354 388.9463,-1029.8393 390.8777,-1040.946 391.4362,-1044.1576 392.0913,-1047.4155 392.8229,-1050.6894"/>
<polygon fill="#000000" stroke="#000000" points="389.4533,-1051.6449 395.2268,-1060.5284 396.2533,-1049.9834 389.4533,-1051.6449"/>
<text text-anchor="middle" x="394.3777" y="-1028.346" font-family="Times,serif" font-size="14.00" fill="#000000">1</text>
</g>
<!-- 3&#45;&gt;4 -->
<g id="edge4" class="edge">
<title>3-&gt;4</title>
<path fill="none" stroke="#000000" d="M394.7273,-876.0057C396.1616,-862.3762 397.7329,-847.4459 399.3506,-832.0732"/>
<polygon fill="#000000" stroke="#000000" points="402.8536,-832.2279 400.4195,-821.9165 395.8921,-831.4953 402.8536,-832.2279"/>
<text text-anchor="middle" x="400.3777" y="-845.4383" font-family="Times,serif" font-size="14.00" fill="#000000">3</text>
</g>
<!-- 4&#45;&gt;5 -->
<g id="edge5" class="edge">
<title>4-&gt;5</title>
<path fill="none" stroke="#000000" d="M354.6712,-552.8888C339.1515,-521.9188 322.4153,-488.521 306.6785,-457.1177"/>
<polygon fill="#000000" stroke="#000000" points="309.6589,-455.2527 302.0497,-447.8805 303.4007,-458.3889 309.6589,-455.2527"/>
<text text-anchor="middle" x="331.3777" y="-496.2192" font-family="Times,serif" font-size="14.00" fill="#000000">4</text>
</g>
<!-- 5&#45;&gt;0 -->
<g id="edge10" class="edge">
<title>5-&gt;0</title>
<path fill="none" stroke="#000000" d="M273.7439,-467.1017C290.8978,-569.2667 300.4836,-708.8626 257.8777,-823.2383 249.5586,-845.5709 234.9761,-866.5925 219.4773,-884.5249"/>
<polygon fill="#000000" stroke="#000000" points="216.8398,-882.2237 212.7944,-892.0159 222.0633,-886.8837 216.8398,-882.2237"/>
<text text-anchor="middle" x="291.3777" y="-670.8287" font-family="Times,serif" font-size="14.00" fill="#000000">9</text>
</g>
<!-- 5&#45;&gt;1 -->
<g id="edge11" class="edge">
<title>5-&gt;1</title>
<path fill="none" stroke="#000000" d="M181.5459,-449.4328C175.801,-463.6219 170.4287,-478.0196 165.8777,-492.0192 154.5586,-526.8385 145.8355,-566.5147 139.6189,-600.0031"/>
<polygon fill="#000000" stroke="#000000" points="136.113,-599.7207 137.7699,-610.1852 143.0004,-600.9714 136.113,-599.7207"/>
<text text-anchor="middle" x="172.8777" y="-496.2192" font-family="Times,serif" font-size="14.00" fill="#000000">10</text>
</g>
<!-- 5&#45;&gt;6 -->
<g id="edge14" class="edge">
<title>5-&gt;6</title>
<path fill="none" stroke="#000000" d="M170.1561,-214.38C150.7602,-183.8197 131.4913,-153.4594 118.3942,-132.8236"/>
<polygon fill="#000000" stroke="#000000" points="121.3186,-130.8997 113.0049,-124.3321 115.4085,-134.6507 121.3186,-130.8997"/>
<text text-anchor="middle" x="139.8777" y="-147" font-family="Times,serif" font-size="14.00" fill="#000000">13</text>
</g>
<!-- 7 -->
<g id="node8" class="node">
<title>7</title>
<ellipse fill="none" stroke="#000000" cx="101.8777" cy="-18" rx="78.1873" ry="18"/>
<text text-anchor="middle" x="101.8777" y="-13.8" font-family="Times,serif" font-size="14.00" fill="#000000">entire application</text>
</g>
<!-- 6&#45;&gt;7 -->
<g id="edge15" class="edge">
<title>6-&gt;7</title>
<path fill="none" stroke="#000000" d="M101.8777,-88.4006C101.8777,-76.2949 101.8777,-60.2076 101.8777,-46.4674"/>
<polygon fill="#000000" stroke="#000000" points="105.3778,-46.072 101.8777,-36.072 98.3778,-46.0721 105.3778,-46.072"/>
<text text-anchor="middle" x="108.8777" y="-58.2" font-family="Times,serif" font-size="14.00" fill="#000000">14</text>
</g>
</g>
</svg>