<?xml version="1.0" encoding="UTF-8" standalone="no"?>
<!DOCTYPE svg PUBLIC "-//W3C//DTD SVG 1.1//EN" "http://www.w3.org/Graphics/SVG/1.1/DTD/svg11.dtd">
<!-- Generated by graphviz version 2.40.1 (20161225.0304)
 -->
<!-- Title: %0 Pages: 1 -->
<svg width="588pt" height="1197pt" viewBox="0.00 0.00 587.79 1197.05" xmlns="http://www.w3.org/2000/svg" xmlns:xlink="http://www.w3.org/1999/xlink">
<g id="graph0" class="graph" transform="scale(1 1) rotate(0) translate(4 1193.0536)">
<title>%0</title>
<polygon fill="#ffffff" stroke="transparent" points="-4,4 -4,-1193.0536 583.7922,-1193.0536 583.7922,4 -4,4"/>
<!-- 0 -->
<g id="node1" class="node">
<title>0</title>
<ellipse fill="none" stroke="#000000" cx="162.6455" cy="-941.0921" rx="81.2223" ry="65.1077"/>
<text text-anchor="start" x="113.2913" y="-970.4921" font-family="Times,serif" font-size="14.00" fill="#000000">struct Alice&lt;F&gt; {</text>
<text text-anchor="start" x="113.2913" y="-953.6921" font-family="Times,serif" font-size="14.00" fill="#000000">  x(u8),</text>
<text text-anchor="start" x="113.2913" y="-936.8921" font-family="Times,serif" font-size="14.00" fill="#000000">  y(u32),</text>
<text text-anchor="start" x="113.2913" y="-920.0921" font-family="Times,serif" font-size="14.00" fill="#000000">  bob(Bob&lt;F&gt;),</text>
<text text-anchor="middle" x="162.6455" y="-903.2921" font-family="Times,serif" font-size="14.00" fill="#000000">}</text>
</g>
<!-- 1 -->
<g id="node2" class="node">
<title>1</title>
<ellipse fill="none" stroke="#000000" cx="132.6455" cy="-675.0287" rx="76.94" ry="65.1077"/>
<text text-anchor="start" x="86.3965" y="-704.4287" font-family="Times,serif" font-size="14.00" fill="#000000">struct Bob&lt;T&gt; {</text>
<text text-anchor="start" x="86.3965" y="-687.6287" font-family="Times,serif" font-size="14.00" fill="#000000">  a(u8),</text>
<text text-anchor="start" x="86.3965" y="-670.8287" font-family="Times,serif" font-size="14.00" fill="#000000">  b(u32),</text>
<text text-anchor="start" x="86.3965" y="-654.0287" font-family="Times,serif" font-size="14.00" fill="#000000">  other(T),</text>
<text text-anchor="middle" x="132.6455" y="-637.2287" font-family="Times,serif" font-size="14.00" fill="#000000">}</text>
</g>
<!-- 0&#45;&gt;1 -->
<g id="edge6" class="edge">
<title>0-&gt;1</title>
<path fill="none" stroke="#000000" d="M155.3066,-876.0057C151.0141,-837.9358 145.5773,-789.7182 141.105,-750.0549"/>
<polygon fill="#000000" stroke="#000000" points="144.5589,-749.4486 139.9604,-739.9038 137.603,-750.233 144.5589,-749.4486"/>
<text text-anchor="middle" x="157.1455" y="-845.4383" font-family="Times,serif" font-size="14.00" fill="#000000">5</text>
</g>
<!-- 5 -->
<g id="node6" class="node">
<title>5</title>
<ellipse fill="none" stroke="#000000" cx="245.6455" cy="-325.8096" rx="133.2937" ry="148.4195"/>
<text text-anchor="start" x="159.4965" y="-414.0096" font-family="Times,serif" font-size="14.00" fill="#000000">fn main() -&gt; () {</text>
<text text-anchor="start" x="159.4965" y="-397.2096" font-family="Times,serif" font-size="14.00" fill="#000000">  let foo: Bob&lt;u16&gt; = Bob {</text>
<text text-anchor="start" x="159.4965" y="-380.4096" font-family="Times,serif" font-size="14.00" fill="#000000">    a: 2u8,</text>
<text text-anchor="start" x="159.4965" y="-363.6096" font-family="Times,serif" font-size="14.00" fill="#000000">    b: 3u32,</text>
<text text-anchor="start" x="159.4965" y="-346.8096" font-family="Times,serif" font-size="14.00" fill="#000000">    other: 16u16,</text>
<text text-anchor="start" x="159.4965" y="-330.0096" font-family="Times,serif" font-size="14.00" fill="#000000">  };</text>
<text text-anchor="start" x="159.4965" y="-313.2096" font-family="Times,serif" font-size="14.00" fill="#000000">  let bar: Alice&lt;u16&gt; = Alice {</text>
<text text-anchor="start" x="159.4965" y="-296.4096" font-family="Times,serif" font-size="14.00" fill="#000000">    x: 4u8,</text>
<text text-anchor="start" x="159.4965" y="-279.6096" font-family="Times,serif" font-size="14.00" fill="#000000">    y: 5u32,</text>
<text text-anchor="start" x="159.4965" y="-262.8096" font-family="Times,serif" font-size="14.00" fill="#000000">    bob: foo,</text>
<text text-anchor="start" x="159.4965" y="-246.0096" font-family="Times,serif" font-size="14.00" fill="#000000">  };</text>
<text text-anchor="middle" x="245.6455" y="-229.2096" font-family="Times,serif" font-size="14.00" fill="#000000">}</text>
</g>
<!-- 0&#45;&gt;5 -->
<g id="edge7" class="edge">
<title>0-&gt;5</title>
<path fill="none" stroke="#000000" d="M196.4126,-881.6202C205.2107,-863.4302 213.6231,-842.9978 218.6455,-823.2383 246.8645,-712.2164 253.1108,-582.9206 252.5673,-483.9797"/>
<polygon fill="#000000" stroke="#000000" points="256.0666,-483.8673 252.4878,-473.8952 249.0668,-483.9225 256.0666,-483.8673"/>
<text text-anchor="middle" x="255.1455" y="-670.8287" font-family="Times,serif" font-size="14.00" fill="#000000">6</text>
</g>
<!-- 6 -->
<g id="node7" class="node">
<title>6</title>
<ellipse fill="none" stroke="#000000" cx="80.6455" cy="-106.8" rx="43.4773" ry="18"/>
<text text-anchor="middle" x="80.6455" y="-102.6" font-family="Times,serif" font-size="14.00" fill="#000000">main.sw</text>
</g>
<!-- 0&#45;&gt;6 -->
<g id="edge12" class="edge">
<title>0-&gt;6</title>
<path fill="none" stroke="#000000" d="M102.6392,-896.9602C80.6711,-877.1537 58.3429,-851.798 46.6455,-823.2383 -55.6985,-573.3616 39.7372,-232.7503 71.3218,-134.412"/>
<polygon fill="#000000" stroke="#000000" points="74.7344,-135.2359 74.5074,-124.6435 68.0794,-133.0656 74.7344,-135.2359"/>
<text text-anchor="middle" x="9.6455" y="-496.2192" font-family="Times,serif" font-size="14.00" fill="#000000">11</text>
</g>
<!-- 1&#45;&gt;0 -->
<g id="edge8" class="edge">
<title>1-&gt;0</title>
<path fill="none" stroke="#000000" d="M132.7145,-740.131C133.538,-775.2257 135.8368,-819.1837 141.6455,-858.0383 142.1035,-861.102 142.626,-864.2169 143.1994,-867.3545"/>
<polygon fill="#000000" stroke="#000000" points="139.8155,-868.285 145.1877,-877.4169 146.6827,-866.9281 139.8155,-868.285"/>
<text text-anchor="middle" x="145.1455" y="-845.4383" font-family="Times,serif" font-size="14.00" fill="#000000">7</text>
</g>
<!-- 1&#45;&gt;5 -->
<g id="edge9" class="edge">
<title>1-&gt;5</title>
<path fill="none" stroke="#000000" d="M152.9781,-612.192C165.3687,-573.8995 181.763,-523.2343 197.3138,-475.1753"/>
<polygon fill="#000000" stroke="#000000" points="200.6627,-476.1945 200.4113,-465.6027 194.0026,-474.0394 200.6627,-476.1945"/>
<text text-anchor="middle" x="192.1455" y="-496.2192" font-family="Times,serif" font-size="14.00" fill="#000000">8</text>
</g>
<!-- 1&#45;&gt;6 -->
<g id="edge13" class="edge">
<title>1-&gt;6</title>
<path fill="none" stroke="#000000" d="M115.8252,-611.2639C106.2629,-571.9936 95.1317,-520.4462 89.6455,-474.0192 74.7842,-348.2566 77.5632,-196.645 79.5576,-134.9572"/>
<polygon fill="#000000" stroke="#000000" points="83.0596,-134.9575 79.9044,-124.8434 76.0637,-134.7175 83.0596,-134.9575"/>
<text text-anchor="middle" x="96.6455" y="-321.6096" font-family="Times,serif" font-size="14.00" fill="#000000">12</text>
</g>
<!-- 2 -->
<g id="node3" class="node">
<title>2</title>
<ellipse fill="none" stroke="#000000" cx="447.6455" cy="-1123.9998" rx="118.7614" ry="65.1077"/>
<text text-anchor="start" x="371.5842" y="-1153.3998" font-family="Times,serif" font-size="14.00" fill="#000000">let foo: Bob&lt;u16&gt; = Bob {</text>
<text text-anchor="start" x="371.5842" y="-1136.5998" font-family="Times,serif" font-size="14.00" fill="#000000">  a: 2u8,</text>
<text text-anchor="start" x="371.5842" y="-1119.7998" font-family="Times,serif" font-size="14.00" fill="#000000">  b: 3u32,</text>
<text text-anchor="start" x="371.5842" y="-1102.9998" font-family="Times,serif" font-size="14.00" fill="#000000">  other: 16u16,</text>
<text text-anchor="middle" x="447.6455" y="-1086.1998" font-family="Times,serif" font-size="14.00" fill="#000000">}</text>
</g>
<!-- 3 -->
<g id="node4" class="node">
<title>3</title>
<ellipse fill="none" stroke="#000000" cx="417.6455" cy="-941.0921" rx="128.3944" ry="65.1077"/>
<text text-anchor="start" x="334.9965" y="-970.4921" font-family="Times,serif" font-size="14.00" fill="#000000">let bar: Alice&lt;u16&gt; = Alice {</text>
<text text-anchor="start" x="334.9965" y="-953.6921" font-family="Times,serif" font-size="14.00" fill="#000000">  x: 4u8,</text>
<text text-anchor="start" x="334.9965" y="-936.8921" font-family="Times,serif" font-size="14.00" fill="#000000">  y: 5u32,</text>
<text text-anchor="start" x="334.9965" y="-920.0921" font-family="Times,serif" font-size="14.00" fill="#000000">  bob: foo,</text>
<text text-anchor="middle" x="417.6455" y="-903.2921" font-family="Times,serif" font-size="14.00" fill="#000000">}</text>
</g>
<!-- 2&#45;&gt;3 -->
<g id="edge1" class="edge">
<title>2-&gt;3</title>
<path fill="none" stroke="#000000" d="M436.9841,-1058.9984C434.7209,-1045.1998 432.3135,-1030.5221 429.9935,-1016.3774"/>
<polygon fill="#000000" stroke="#000000" points="433.3955,-1015.4939 428.323,-1006.1922 426.4878,-1016.6269 433.3955,-1015.4939"/>
<text text-anchor="middle" x="436.1455" y="-1028.346" font-family="Times,serif" font-size="14.00" fill="#000000">0</text>
</g>
<!-- 4 -->
<g id="node5" class="node">
<title>4</title>
<ellipse fill="none" stroke="#000000" cx="446.6455" cy="-675.0287" rx="133.2937" ry="148.4195"/>
<text text-anchor="start" x="360.4965" y="-763.2287" font-family="Times,serif" font-size="14.00" fill="#000000">{</text>
<text text-anchor="start" x="360.4965" y="-746.4287" font-family="Times,serif" font-size="14.00" fill="#000000">  let foo: Bob&lt;u16&gt; = Bob {</text>
<text text-anchor="start" x="360.4965" y="-729.6287" font-family="Times,serif" font-size="14.00" fill="#000000">    a: 2u8,</text>
<text text-anchor="start" x="360.4965" y="-712.8287" font-family="Times,serif" font-size="14.00" fill="#000000">    b: 3u32,</text>
<text text-anchor="start" x="360.4965" y="-696.0287" font-family="Times,serif" font-size="14.00" fill="#000000">    other: 16u16,</text>
<text text-anchor="start" x="360.4965" y="-679.2287" font-family="Times,serif" font-size="14.00" fill="#000000">  };</text>
<text text-anchor="start" x="360.4965" y="-662.4287" font-family="Times,serif" font-size="14.00" fill="#000000">  let bar: Alice&lt;u16&gt; = Alice {</text>
<text text-anchor="start" x="360.4965" y="-645.6287" font-family="Times,serif" font-size="14.00" fill="#000000">    x: 4u8,</text>
<text text-anchor="start" x="360.4965" y="-628.8287" font-family="Times,serif" font-size="14.00" fill="#000000">    y: 5u32,</text>
<text text-anchor="start" x="360.4965" y="-612.0287" font-family="Times,serif" font-size="14.00" fill="#000000">    bob: foo,</text>
<text text-anchor="start" x="360.4965" y="-595.2287" font-family="Times,serif" font-size="14.00" fill="#000000">  };</text>
<text text-anchor="start" x="360.4965" y="-578.4287" font-family="Times,serif" font-size="14.00" fill="#000000">}</text>
</g>
<!-- 2&#45;&gt;4 -->
<g id="edge3" class="edge">
<title>2-&gt;4</title>
<path fill="none" stroke="#000000" d="M512.6853,-1069.1705C529.6224,-1051.0401 545.6344,-1029.4764 554.6455,-1006.146 575.4796,-952.204 568.7564,-932.1158 554.6455,-876.0383 548.6287,-852.1276 539.154,-827.9622 528.2584,-805.0792"/>
<polygon fill="#000000" stroke="#000000" points="531.3784,-803.4918 523.8491,-796.0379 525.0867,-806.5602 531.3784,-803.4918"/>
<text text-anchor="middle" x="571.1455" y="-936.8921" font-family="Times,serif" font-size="14.00" fill="#000000">2</text>
</g>
<!-- 3&#45;&gt;2 -->
<g id="edge2" class="edge">
<title>3-&gt;2</title>
<path fill="none" stroke="#000000" d="M416.9381,-1006.355C417.57,-1017.9354 418.7141,-1029.8393 420.6455,-1040.946 421.1739,-1043.9849 421.7889,-1047.0653 422.4733,-1050.1614"/>
<polygon fill="#000000" stroke="#000000" points="419.1179,-1051.1767 424.8744,-1060.0713 425.9211,-1049.5283 419.1179,-1051.1767"/>
<text text-anchor="middle" x="424.1455" y="-1028.346" font-family="Times,serif" font-size="14.00" fill="#000000">1</text>
</g>
<!-- 3&#45;&gt;4 -->
<g id="edge4" class="edge">
<title>3-&gt;4</title>
<path fill="none" stroke="#000000" d="M424.7397,-876.0057C426.2183,-862.4393 427.8375,-847.5842 429.5049,-832.2867"/>
<polygon fill="#000000" stroke="#000000" points="433.0023,-832.4997 430.6065,-822.1794 426.0435,-831.7412 433.0023,-832.4997"/>
<text text-anchor="middle" x="431.1455" y="-845.4383" font-family="Times,serif" font-size="14.00" fill="#000000">3</text>
</g>
<!-- 4&#45;&gt;5 -->
<g id="edge5" class="edge">
<title>4-&gt;5</title>
<path fill="none" stroke="#000000" d="M374.6476,-549.939C357.7309,-520.5477 339.6396,-489.1158 322.5182,-459.3689"/>
<polygon fill="#000000" stroke="#000000" points="325.5002,-457.5335 317.4783,-450.6126 319.4333,-461.0255 325.5002,-457.5335"/>
<text text-anchor="middle" x="349.1455" y="-496.2192" font-family="Times,serif" font-size="14.00" fill="#000000">4</text>
</g>
<!-- 5&#45;&gt;0 -->
<g id="edge10" class="edge">
<title>5-&gt;0</title>
<path fill="none" stroke="#000000" d="M278.92,-469.5499C295.8149,-571.4888 304.912,-709.7736 262.6455,-823.2383 254.2444,-845.7909 239.4559,-867.0066 223.7867,-885.054"/>
<polygon fill="#000000" stroke="#000000" points="221.1011,-882.8064 217.0334,-892.5893 226.314,-887.4783 221.1011,-882.8064"/>
<text text-anchor="middle" x="296.1455" y="-670.8287" font-family="Times,serif" font-size="14.00" fill="#000000">9</text>
</g>
<!-- 5&#45;&gt;1 -->
<g id="edge11" class="edge">
<title>5-&gt;1</title>
<path fill="none" stroke="#000000" d="M183.2033,-457.2311C178.6321,-468.8723 174.3646,-480.5786 170.6455,-492.0192 159.3263,-526.8385 150.6033,-566.5147 144.3866,-600.0031"/>
<polygon fill="#000000" stroke="#000000" points="140.8807,-599.7207 142.5377,-610.1852 147.7681,-600.9714 140.8807,-599.7207"/>
<text text-anchor="middle" x="177.6455" y="-496.2192" font-family="Times,serif" font-size="14.00" fill="#000000">10</text>
</g>
<!-- 5&#45;&gt;6 -->
<g id="edge14" class="edge">
<title>5-&gt;6</title>
<path fill="none" stroke="#000000" d="M160.004,-212.1351C137.3458,-182.0601 115.0039,-152.4051 99.8282,-132.2619"/>
<polygon fill="#000000" stroke="#000000" points="102.5959,-130.1189 93.7831,-124.238 97.005,-134.331 102.5959,-130.1189"/>
<text text-anchor="middle" x="123.6455" y="-147" font-family="Times,serif" font-size="14.00" fill="#000000">13</text>
</g>
<!-- 7 -->
<g id="node8" class="node">
<title>7</title>
<ellipse fill="none" stroke="#000000" cx="80.6455" cy="-18" rx="78.1873" ry="18"/>
<text text-anchor="middle" x="80.6455" y="-13.8" font-family="Times,serif" font-size="14.00" fill="#000000">entire application</text>
</g>
<!-- 6&#45;&gt;7 -->
<g id="edge15" class="edge">
<title>6-&gt;7</title>
<path fill="none" stroke="#000000" d="M80.6455,-88.4006C80.6455,-76.2949 80.6455,-60.2076 80.6455,-46.4674"/>
<polygon fill="#000000" stroke="#000000" points="84.1455,-46.072 80.6455,-36.072 77.1455,-46.0721 84.1455,-46.072"/>
<text text-anchor="middle" x="87.6455" y="-58.2" font-family="Times,serif" font-size="14.00" fill="#000000">14</text>
</g>
</g>
</svg>